<svg
  xmlns="http://www.w3.org/2000/svg"
  xmlns:xlink="http://www.w3.org/1999/xlink"
  width="152.74"
  height="160.82"
  viewBox="0 0 152.74 160.82"
>
  <defs>
    <clipPath id="a">
      <path
        d="M144.5,130.5c-5.79-15.57-40.23-23.27-48.3-28-.55.32-1.12.61-1.68.9l-17.73,20L52.27,104.48c-12.13,4.84-39,12.44-44,26A176.4,176.4,0,0,0,0,160.82H152.74A176.4,176.4,0,0,0,144.5,130.5Z"
        fill="none"
      />
    </clipPath>
  </defs>
  <path
    d="M143.45,130.72c-5.95-16-42.32-23.61-48.69-28.24-8.17-6-5.57-25.65-5.57-25.65l-13.38.36-13.38-.36s2.6,19.7-5.57,25.65c-6.37,4.63-42.74,12.26-48.68,28.24A174.64,174.64,0,0,0,0,160.82H151.62A175.11,175.11,0,0,0,143.45,130.72Z"
    fill="#fddec0"
  />
  <path
    d="M60,98.81c6.27-.64,12.56-1.91,18-5A61.61,61.61,0,0,0,88.84,86a60.14,60.14,0,0,1,.35-9.21l-13.38.36-13.38-.36S64.28,90.85,60,98.81Z"
    fill="#e2c6af"
  />
  <path
    d="M144.5,130.5c-5.79-15.57-40.23-23.27-48.3-28-.55.32-1.12.61-1.68.9l-17.73,20L52.27,104.48c-12.13,4.84-39,12.44-44,26A176.4,176.4,0,0,0,0,160.82H152.74A176.4,176.4,0,0,0,144.5,130.5Z"
    fill="#fc6a5a"
  />
  <g clip-path="url(#a)">
    <line
      x1="1.12"
      y1="149.24"
      x2="152.12"
      y2="149.24"
      fill="none"
      stroke="#f99787"
      stroke-miterlimit="10"
      stroke-width="3"
    />
    <line
      x1="1.12"
      y1="153.91"
      x2="152.12"
      y2="153.91"
      fill="none"
      stroke="#f99787"
      stroke-miterlimit="10"
    />
  </g>
  <polygon
    points="71.12 112.41 76.79 123.41 80.79 111.07 83.79 117.07 76.45 124.74 68.12 117.41 71.12 112.41"
    fill="#bc7068"
  />
  <polygon
    points="50.79 104.74 65.79 126.41 71.12 112.41 55.45 96.74 50.79 104.74"
    fill="#f99787"
  />
  <polygon
    points="100.12 103.07 86.12 125.07 80.79 111.07 96.45 95.41 100.12 103.07"
    fill="#f99787"
  />
  <path
    d="M53.35,46.13c-2.16-6.7-7.28-5.15-7.76-5S39.8,42,40.71,49s5,10.83,8.82,9.71C53.46,58.06,55.52,52.87,53.35,46.13Z"
    fill="#e2c6af"
  />
  <path
    d="M95.27,45.46c2.16-6.7,7.28-5.15,7.76-5s5.79.85,4.88,7.83-5,10.83-8.82,9.71C95.16,57.39,93.1,52.21,95.27,45.46Z"
    fill="#e2c6af"
  />
  <path
    d="M102.07,35.58C99.39,6.2,77.05,7.84,74.94,8.06,72.83,7.84,50.49,6.2,47.81,35.58,45.12,65.15,58.29,84.45,74.94,83.39,91.59,84.45,104.76,65.15,102.07,35.58Z"
    fill="#fddec0"
  />
  <path
    d="M78.13,45.62a19.2,19.2,0,0,1,1,2.82c.16.47.26,1,.39,1.43s.21,1,.32,1.44c.21,1,.36,1.93.48,2.9s.2,1.95.27,2.93l0,.51-.29.22a23.86,23.86,0,0,1-4,2.58,24.37,24.37,0,0,1,2.8-3.8l-.26.73c-.2-1-.42-1.92-.56-2.89s-.28-1.94-.35-2.92c0-.49-.09-1-.1-1.47s0-1,0-1.48A21.83,21.83,0,0,1,78.13,45.62Z"
    fill="#e2c6af"
  />
  <path d="M62,64.78l26.52-.28S77.92,74.94,62,64.78Z" fill="#fff" />
  <path
    d="M68.8,70.1l.77.21a17.58,17.58,0,0,0,2,.53l1.33.26a13.46,13.46,0,0,0,1.5.17,8.46,8.46,0,0,0,1.6.07c.54,0,1.1,0,1.65,0L79.27,71a9.8,9.8,0,0,0,1.55-.41,8.35,8.35,0,0,0,1.41-.49c.44-.21.85-.39,1.24-.56a6.74,6.74,0,0,0,1-.55l.77-.47c.43-.26.69-.39.69-.39s-.2.2-.57.54l-.67.62a4.53,4.53,0,0,1-.94.74c-.37.24-.77.49-1.21.74a6.39,6.39,0,0,1-1.45.65l-.79.29-.4.15-.43.08-1.74.31c-.59,0-1.18,0-1.76,0a7.81,7.81,0,0,1-1.69-.17,9.25,9.25,0,0,1-1.55-.31c-.49-.15-.94-.31-1.36-.45a5.16,5.16,0,0,1-1.08-.47l-.8-.42C69.05,70.25,68.8,70.1,68.8,70.1Z"
    fill="#e2c6af"
  />
  <ellipse cx="62.88" cy="46.06" rx="1.83" ry="4.01" fill="#352c38" />
  <path
    d="M86.26,46.06c0,2.21.82,4,1.83,4s1.83-1.8,1.83-4-.82-4-1.83-4S86.26,43.85,86.26,46.06Z"
    fill="#352c38"
  />
  <path
    d="M56.54,39.5a6.64,6.64,0,0,1,1.31-2.07,7.8,7.8,0,0,1,.87-.84,6.37,6.37,0,0,1,1.12-.79,8.07,8.07,0,0,1,1.36-.63,6.75,6.75,0,0,1,1.56-.32l.81,0,.8.11a5.59,5.59,0,0,1,1.49.44,6.76,6.76,0,0,1,1.21.71,5,5,0,0,1,.91.84,3.7,3.7,0,0,1,.64.79,6.87,6.87,0,0,1,.4.67,6.42,6.42,0,0,1,.3.6l-.6-.3c-.19-.1-.41-.22-.65-.37a7,7,0,0,0-.82-.41,7.71,7.71,0,0,0-1-.42c-.35-.09-.69-.27-1.06-.33A6.17,6.17,0,0,0,64.1,37l-.57,0L63,37a9.46,9.46,0,0,0-1.17.18c-.37.13-.77.19-1.13.35a10.37,10.37,0,0,0-1.07.43c-.36.14-.67.32-1,.46l-.83.43-.65.36Z"
    fill="#352c38"
  />
  <path
    d="M81.93,39.5a6.64,6.64,0,0,1,1.31-2.07,7.8,7.8,0,0,1,.87-.84,6.37,6.37,0,0,1,1.12-.79,8.07,8.07,0,0,1,1.36-.63,6.86,6.86,0,0,1,1.56-.32l.81,0,.8.11a5.59,5.59,0,0,1,1.49.44,7.23,7.23,0,0,1,1.22.71,5.22,5.22,0,0,1,.9.84,3.7,3.7,0,0,1,.64.79,6.87,6.87,0,0,1,.4.67,6.42,6.42,0,0,1,.3.6l-.6-.3c-.18-.1-.41-.22-.64-.37a8,8,0,0,0-.83-.41,7.71,7.71,0,0,0-1-.42c-.35-.09-.69-.27-1.06-.33A6.19,6.19,0,0,0,89.5,37l-.58,0-.58,0a9.76,9.76,0,0,0-1.17.18c-.37.13-.77.19-1.13.35a11.37,11.37,0,0,0-1.07.43c-.35.14-.67.32-1,.46l-.83.43-.65.36Z"
    fill="#352c38"
  />
  <path
    d="M57.05,24.15s8.07,10.59,20.74,12.26l-3-4.34a36.5,36.5,0,0,0,13.66,5.34,16.5,16.5,0,0,0-2.33-12.34s5.67,12.34,12.33,17c0,0,2.67-8.66-.66-13.66,0,0,2.12,2.35,8.45,10,0,0,7.1-21.51-10.24-33.18S60.17,4.11,54.17,10.44c0,0-10.68-3.6-13.13,10.68A37.13,37.13,0,0,0,43.49,42s3.75-2.47,3.75,5.2l.88,7.84h2.33l.34-15.66S56.72,37.15,57.05,24.15Z"
    fill="#352c38"
  />
  <path
    d="M99.19,54.64l2.52-.09c2.3-8.22.74-23.14.74-23.14s-7.79-15.49-4.66-3C100.37,38.72,99.48,51.43,99.19,54.64Z"
    fill="#352c38"
  />
</svg>
