<svg
  xmlns="http://www.w3.org/2000/svg"
  width="152.74"
  height="165.84"
  viewBox="0 0 152.74 165.84"
>
  <path
    d="M71.61,10.13s12.85-5.74,23-.38S111.31,36.53,120.65,45s16.59,18.42,11.15,28S121,81.68,126.49,95.07s-17.36,16.58-12.69,26.53c0,0-11.83-21.94-8.33-41.07S99.24,15.87,83.68,17.4l-14-.76Z"
    fill="#965450"
  />
  <path
    d="M75.89,4.78s6.36-10,19.91-1c6.65,4.43,9.48,15.23,21.73,21.28C131,31.7,133.3,37.93,127.71,47.62c-3.47,6,7.21,4.83,1.93,19.74C125.52,79,89.9,15.49,89.9,15.49L75.12,13.58Z"
    fill="#965450"
  />
  <path
    d="M117.29,49.26s10.51,8.48,7.21,18.51-12.7,13.72-6.11,27.76-6.12,17.58-6.12,17.58-30.75-2.16-27-34.7S105,44.89,105,44.89Z"
    fill="#824846"
  />
  <path
    d="M117.29,49.26s10.51,8.48,7.21,18.51-12.7,13.72-6.11,27.76-6.12,17.58-6.12,17.58-30.75-2.16-27-34.7S105,44.89,105,44.89Z"
    fill="#824846"
  />
  <path
    d="M38.91,25.17S27.18,36.53,28,47.5s-2.64,19.24-8.31,24.15-5.42,15.42,0,21.55a20.47,20.47,0,0,1,.44-15.06s-5,28.42,23.81,31.89c0,0-1-.43-4.12-8.73,0,0,1.56,7.91,19.19,9.17S85.47,88,77.15,62.56,52.3,30.24,52.3,30.24Z"
    fill="#824846"
  />
  <path
    d="M143.45,135.74c-5.95-16-42.32-23.62-48.69-28.25-8.17-5.94-5.57-25.64-5.57-25.64l-13.38.35-13.38-.35s2.6,19.7-5.57,25.64c-6.37,4.63-42.74,12.27-48.68,28.25A174.64,174.64,0,0,0,0,165.84H151.62A175.11,175.11,0,0,0,143.45,135.74Z"
    fill="#fddec0"
  />
  <path
    d="M60,103.82c6.27-.64,12.56-1.91,18-5a61.05,61.05,0,0,0,10.87-7.8,60.14,60.14,0,0,1,.35-9.21l-13.38.35-13.38-.35S64.28,95.87,60,103.82Z"
    fill="#e2c6af"
  />
  <path
    d="M144.5,135.51c-5.79-15.56-40.23-23.26-48.3-28a46.26,46.26,0,0,1-42.51,1.38c-11.32,4.81-40.2,12.46-45.45,26.59A176.37,176.37,0,0,0,0,165.84H152.74A176.37,176.37,0,0,0,144.5,135.51Z"
    fill="#6f96bd"
  />
  <path
    d="M53.35,51.15c-2.16-6.71-7.28-5.16-7.76-5S39.8,47,40.71,54s5,10.84,8.82,9.72C53.46,63.07,55.52,57.89,53.35,51.15Z"
    fill="#e2c6af"
  />
  <path
    d="M97.61,51.15c2.16-6.71,7.27-5.16,7.75-5s5.79.84,4.88,7.82-5,10.84-8.82,9.72C97.49,63.07,95.43,57.89,97.61,51.15Z"
    fill="#e2c6af"
  />
  <path
    d="M102.07,40.6c-2.68-29.39-25-27.74-27.13-27.52-2.11-.22-24.45-1.87-27.13,27.52C45.12,70.16,58.29,89.47,74.94,88.41,91.59,89.47,104.76,70.16,102.07,40.6Z"
    fill="#fddec0"
  />
  <path
    d="M78.13,50.63a19.32,19.32,0,0,1,1,2.83c.16.47.26.95.39,1.42s.21,1,.32,1.44c.21,1,.36,1.93.48,2.9s.2,2,.27,2.94l0,.51-.29.22a24.51,24.51,0,0,1-4,2.58,24.94,24.94,0,0,1,2.8-3.81l-.26.73c-.2-1-.42-1.91-.56-2.88s-.28-1.94-.35-2.92c0-.49-.09-1-.1-1.48s0-1,0-1.48A21.94,21.94,0,0,1,78.13,50.63Z"
    fill="#e2c6af"
  />
  <path d="M62,69.8l26.52-.28S77.92,80,62,69.8Z" fill="#fff" />
  <path
    d="M68.8,75.12l.77.21c.48.11,1.17.39,2,.53.42.07.86.16,1.33.26a13.46,13.46,0,0,0,1.5.17,9.39,9.39,0,0,0,1.6.07c.54,0,1.1,0,1.65-.06L79.27,76a9.78,9.78,0,0,0,1.55-.4,7.57,7.57,0,0,0,1.41-.5l1.24-.55a6,6,0,0,0,1-.56l.77-.46c.43-.26.69-.4.69-.4s-.2.21-.57.55l-.67.62a4.89,4.89,0,0,1-.94.74l-1.21.74a6.86,6.86,0,0,1-1.45.65l-.79.29-.4.15-.43.08-1.74.31c-.59,0-1.18,0-1.76,0a7.81,7.81,0,0,1-1.69-.17,8.34,8.34,0,0,1-1.55-.32l-1.36-.44a5.16,5.16,0,0,1-1.08-.48l-.8-.41C69.05,75.27,68.8,75.12,68.8,75.12Z"
    fill="#e2c6af"
  />
  <path
    d="M61,51.08c0,2.21.82,4,1.84,4s1.83-1.79,1.83-4-.82-4-1.83-4S61,48.86,61,51.08Z"
    fill="#352c38"
  />
  <path
    d="M86.26,51.08c0,2.21.82,4,1.83,4s1.83-1.79,1.83-4-.82-4-1.83-4S86.26,48.86,86.26,51.08Z"
    fill="#352c38"
  />
  <path
    d="M56.54,44.52a6.74,6.74,0,0,1,1.31-2.08,7.8,7.8,0,0,1,.87-.84,6.34,6.34,0,0,1,1.12-.78,8.1,8.1,0,0,1,1.36-.64,7.31,7.31,0,0,1,1.56-.31c.27,0,.54,0,.81,0l.8.1a5.79,5.79,0,0,1,1.48.44,7.14,7.14,0,0,1,1.22.72,5,5,0,0,1,.91.84,3.66,3.66,0,0,1,.64.78c.17.26.3.49.4.68a5.2,5.2,0,0,1,.3.6l-.6-.31c-.19-.1-.41-.21-.65-.36a5.69,5.69,0,0,0-.82-.41,6.46,6.46,0,0,0-1-.42c-.35-.09-.69-.27-1.06-.33A7.19,7.19,0,0,0,64.1,42a5.46,5.46,0,0,1-.57,0L63,42a7.86,7.86,0,0,0-1.17.17c-.37.14-.77.2-1.13.36a10.37,10.37,0,0,0-1.07.43c-.36.14-.67.32-1,.45l-.83.44-.65.36Z"
    fill="#352c38"
  />
  <path
    d="M81.93,44.52a6.74,6.74,0,0,1,1.31-2.08,7.8,7.8,0,0,1,.87-.84,6.34,6.34,0,0,1,1.12-.78,8.1,8.1,0,0,1,1.36-.64,7.31,7.31,0,0,1,1.56-.31c.27,0,.54,0,.81,0l.8.1a6,6,0,0,1,1.49.44,8,8,0,0,1,1.22.72,5.22,5.22,0,0,1,.9.84,3.66,3.66,0,0,1,.64.78c.17.26.3.49.4.68a5.2,5.2,0,0,1,.3.6l-.6-.31c-.18-.1-.41-.21-.64-.36a21.27,21.27,0,0,0-1.79-.83c-.35-.09-.69-.27-1.06-.33A7.25,7.25,0,0,0,89.5,42a5.46,5.46,0,0,1-.58,0l-.58.05a8.05,8.05,0,0,0-1.17.17c-.37.14-.77.2-1.13.36A11.37,11.37,0,0,0,85,43c-.35.14-.67.32-1,.45l-.83.44-.65.36Z"
    fill="#352c38"
  />
  <path
    d="M76,21.43s-10.62-5.11-15.74,7.08S56.21,58,42.48,64.13c-15.54,7-9.79,23.4-9.79,23.4S22.46,79.26,25.61,71.4,43.7,52.91,46.85,38,66.13,8.84,76,21.43Z"
    fill="#965450"
  />
  <path
    d="M75.94,21.65a7.39,7.39,0,0,0-.81-.2,12.64,12.64,0,0,0-2.5-.26,11.79,11.79,0,0,0-3.84.56,10.53,10.53,0,0,0-4.22,2.65,15.13,15.13,0,0,0-3.14,5.25,52,52,0,0,0-2,6.91C58.32,41.47,57.52,46.89,55.59,52a24.29,24.29,0,0,1-4,7.13,19.12,19.12,0,0,1-6.2,4.9,20.85,20.85,0,0,0-5.92,4.09,17.37,17.37,0,0,0-2.06,2.63,16.19,16.19,0,0,0-1.36,2.82,16.61,16.61,0,0,0-.94,5.4,21.31,21.31,0,0,0,.37,4.23,17.93,17.93,0,0,0,1,3.57,18,18,0,0,1-1.07-3.56A22.33,22.33,0,0,1,35,79a17.78,17.78,0,0,1,.85-5.47,16.62,16.62,0,0,1,1.31-2.91,17.3,17.3,0,0,1,2-2.74,21.59,21.59,0,0,1,5.94-4.34A18.39,18.39,0,0,0,51,58.68a23.39,23.39,0,0,0,3.68-7C56.37,46.64,57,41.26,58,36.25a53.21,53.21,0,0,1,1.8-7.19,17,17,0,0,1,3.37-6,12.56,12.56,0,0,1,4.94-3.36,14,14,0,0,1,4.54-.87,15.61,15.61,0,0,1,3,.18,10,10,0,0,1,1.08.23Z"
    fill="#965450"
  />
  <path
    d="M76.73,4.67,76,21.43S55.5,11.6,48,51.33c0,0-31.57,31.44-24.07,15.94s-8.19-22.63,4.79-33.64,14.17-11,21.64-20.46S66.9-4.38,76.73,4.67Z"
    fill="#965450"
  />
  <path
    d="M76,21.43s11-6.07,14.5,5.34S101.1,44.66,103,55.43c2.34,13.5-17.32,33.22-14.17,45s15.38,8.09,15.38,8.09-11.25-2.6-9.67-10.47S123.75,70.77,123,60.93s-2.23-5.35-6.16-22.66S94.11,5.83,75.62,12.12C65.14,2.68,76,21.43,76,21.43Z"
    fill="#965450"
  />
  <path
    d="M75.55,20.55s.3-.11.84-.28a20.81,20.81,0,0,1,2.39-.6,16.1,16.1,0,0,1,3.85-.31,8,8,0,0,1,4.84,1.7,6.23,6.23,0,0,1,1,1.08c.16.21.27.41.43.66l.34.62a19.56,19.56,0,0,1,1.21,2.79c.69,2,1.16,4.05,1.88,6.1a32,32,0,0,0,2.9,6c.29.5.61,1,.93,1.45s.65,1,1,1.43c.68.94,1.41,1.87,2,2.94A17.55,17.55,0,0,1,101.46,51a22.93,22.93,0,0,1-.35,6.9,44.09,44.09,0,0,1-4.27,11.37,13.67,13.67,0,0,0-1.6,4.47,11.51,11.51,0,0,0,0,3.68,11.09,11.09,0,0,0,.61,2.3,7.5,7.5,0,0,0,.34.78,7.1,7.1,0,0,1-.37-.76,12,12,0,0,1-.87-6,13.33,13.33,0,0,1,1.48-4.62,42.62,42.62,0,0,0,4-11.31,22.18,22.18,0,0,0,.2-6.67,17,17,0,0,0-2.26-6.41c-.57-1-1.31-1.89-2-2.85-.36-.47-.7-1-1-1.45s-.67-1-1-1.48a33.72,33.72,0,0,1-3-6.22c-.77-2.12-1.26-4.22-1.93-6.08A18.75,18.75,0,0,0,88.2,24l-.34-.62c-.1-.14-.22-.35-.34-.5a5,5,0,0,0-.84-.87,7,7,0,0,0-4.12-1.42,15.3,15.3,0,0,0-3.56.25,20.46,20.46,0,0,0-2.26.56l-.77.25Z"
    fill="#965450"
  />
  <path
    d="M97.46,37.1s5.67,14.17,3.5,24.33c0,0,4-9.5,2.84-18.16S97.46,37.1,97.46,37.1Z"
    fill="#824846"
  />
</svg>
