<svg
  xmlns="http://www.w3.org/2000/svg"
  width="152.74"
  height="168.17"
  viewBox="0 0 152.74 168.17"
>
  <path
    d="M143.45,138.07c-5.95-16-42.32-23.61-48.69-28.24-8.17-6-5.57-25.64-5.57-25.64l-13.38.35-13.38-.35s2.6,19.69-5.57,25.64c-6.37,4.63-42.74,12.26-48.68,28.24A174.64,174.64,0,0,0,0,168.17H151.62A175.11,175.11,0,0,0,143.45,138.07Z"
    fill="#ffac9d"
  />
  <path
    d="M60,106.16c6.27-.64,12.56-1.91,18-5a61.56,61.56,0,0,0,10.87-7.8,60.14,60.14,0,0,1,.35-9.21l-13.38.35-13.38-.35S64.28,98.21,60,106.16Z"
    fill="#cc887f"
  />
  <path
    d="M144.5,137.85c-4.63-12.44-27.56-19.86-40.7-24.74-5.71,6.59-15.86,11-27.43,11s-21.72-4.39-27.43-11C35.8,118,12.87,125.41,8.24,137.85A176.4,176.4,0,0,0,0,168.17H152.74A176.4,176.4,0,0,0,144.5,137.85Z"
    fill="#6f96bd"
  />
  <path
    d="M76.32,129.19c14.68,0,27.27-5.84,32.67-14.18l-5.19-1.9c-5.71,6.59-15.86,11-27.43,11s-21.72-4.39-27.43-11L43.67,115C49.08,123.36,61.66,129.19,76.32,129.19Z"
    fill="#85b7e0"
  />
  <path
    d="M53.35,53.48c-2.16-6.7-7.28-5.15-7.76-5s-5.79.85-4.88,7.83,5,10.83,8.82,9.71C53.46,65.41,55.52,60.23,53.35,53.48Z"
    fill="#cc887f"
  />
  <path
    d="M96.61,53.48c2.16-6.7,7.27-5.15,7.75-5s5.79.85,4.88,7.83-5,10.83-8.82,9.71C96.49,65.41,94.43,60.23,96.61,53.48Z"
    fill="#cc887f"
  />
  <path
    d="M102.07,42.94c-2.68-29.39-25-27.74-27.13-27.52-2.11-.22-24.45-1.87-27.13,27.52C45.12,72.5,58.29,91.81,74.94,90.74,91.59,91.81,104.76,72.5,102.07,42.94Z"
    fill="#ffac9d"
  />
  <path
    d="M78.13,53c.16.47.28,1,.42,1.43s.24,1,.36,1.43c.21,1,.4,1.92.57,2.89s.33,1.93.44,2.9.24,2,.32,2.93l0,.25-.16.14c-.58.5-1.19,1-1.79,1.48s-1.23,1-1.89,1.39c.48-.63,1-1.2,1.5-1.8s1-1.16,1.57-1.72l-.13.39c-.2-1-.37-1.93-.52-2.9s-.27-1.94-.39-2.91-.2-2-.26-2.94c0-.49,0-1,0-1.47S78.11,53.47,78.13,53Z"
    fill="#cc887f"
  />
  <path d="M62,72.13l26.52-.27S77.92,82.29,62,72.13Z" fill="#fff" />
  <path
    d="M68.8,77.46s.29.06.77.19a19.12,19.12,0,0,0,2,.51l1.33.25a11.52,11.52,0,0,0,1.49.16,8.46,8.46,0,0,0,1.6.07c.54,0,1.09,0,1.64-.06l1.62-.25a9.4,9.4,0,0,0,1.54-.41,7.54,7.54,0,0,0,1.41-.48l1.24-.54a6.4,6.4,0,0,0,1-.55l.77-.45c.44-.26.7-.39.7-.39s-.19.21-.56.56l-.67.62a4.57,4.57,0,0,1-.93.76c-.37.23-.77.49-1.21.74a6,6,0,0,1-1.45.66l-.79.3-.41.15-.43.08-1.74.31c-.59,0-1.19,0-1.77,0a8.6,8.6,0,0,1-1.7-.17,9.24,9.24,0,0,1-1.55-.33c-.49-.15-.94-.31-1.36-.46a5.16,5.16,0,0,1-1.08-.48l-.8-.43Z"
    fill="#cc887f"
  />
  <path
    d="M61,53.41c0,2.22.82,4,1.84,4s1.83-1.79,1.83-4-.82-4-1.83-4S61,51.2,61,53.41Z"
    fill="#352c38"
  />
  <path
    d="M86.26,53.41c0,2.22.82,4,1.83,4s1.83-1.79,1.83-4-.82-4-1.83-4S86.26,51.2,86.26,53.41Z"
    fill="#352c38"
  />
  <path
    d="M56.54,46.86a6.74,6.74,0,0,1,1.31-2.08,7.8,7.8,0,0,1,.87-.84,6.94,6.94,0,0,1,1.12-.79,8.94,8.94,0,0,1,1.36-.63,7.31,7.31,0,0,1,1.56-.31c.27,0,.54,0,.81,0s.54.06.8.1a5.59,5.59,0,0,1,1.49.44,7.44,7.44,0,0,1,1.21.72,4.92,4.92,0,0,1,.91.83,3.7,3.7,0,0,1,.64.79c.17.25.3.49.4.67a6.42,6.42,0,0,1,.3.6s-.23-.1-.6-.3c-.19-.1-.41-.22-.64-.36a8,8,0,0,0-.83-.42,6.45,6.45,0,0,0-1-.41,9.35,9.35,0,0,0-1.06-.34,7.17,7.17,0,0,0-1.13-.17l-.57,0-.58,0a7.86,7.86,0,0,0-1.17.17c-.37.13-.77.19-1.13.35a11.4,11.4,0,0,0-1.07.44c-.35.13-.67.31-1,.45l-.83.44-.65.35Z"
    fill="#352c38"
  />
  <path
    d="M81.93,46.86a6.74,6.74,0,0,1,1.31-2.08,7.8,7.8,0,0,1,.87-.84,6.94,6.94,0,0,1,1.12-.79,8.94,8.94,0,0,1,1.36-.63,7.44,7.44,0,0,1,1.56-.31c.27,0,.54,0,.81,0s.54.06.8.1a5.59,5.59,0,0,1,1.49.44,8,8,0,0,1,1.22.72,5.18,5.18,0,0,1,.9.83,3.7,3.7,0,0,1,.64.79c.17.25.3.49.4.67a6.42,6.42,0,0,1,.3.6s-.23-.1-.6-.3c-.18-.1-.41-.22-.64-.36a8,8,0,0,0-.83-.42,6.45,6.45,0,0,0-1-.41,9.35,9.35,0,0,0-1.06-.34,7.22,7.22,0,0,0-1.12-.17l-.58,0-.58,0a8.05,8.05,0,0,0-1.17.17c-.37.13-.77.19-1.13.35a11.4,11.4,0,0,0-1.07.44c-.35.13-.67.31-1,.45l-.83.44-.65.35Z"
    fill="#352c38"
  />
  <path
    d="M47.9,57.43s-7-29-3-37.34,8.67-5.66,8.67-5.66S59.9-2.91,73.23.43s21,9.33,28,3.33c0,0,0,5.33-4,7.67,0,0,8.34,0,11.67-8,0,0,5,17.1-6,23.1,0,0,.83,21.36,0,29.23l-3-.33s-1.67-11.34-2.67-25.67c0,0-17.33,9.33-38.33-7,0,0,3,11-9,18l1,15.33Z"
    fill="#965450"
  />
  <path
    d="M90.6,31.86a49.43,49.43,0,0,1-14-3c-9-3.46-16.76-13.73-17.38-23.68a30.89,30.89,0,0,0-5.69,9.23s-4.67-2.67-8.67,5.66,3,37.34,3,37.34l3-1.34-1-15.33c12-7,9-18,9-18C72,32.94,83.67,33.15,90.6,31.86Z"
    fill="#76413b"
  />
</svg>
