<svg
  width="72"
  height="72"
  viewBox="0 0 72 72"
  fill="none"
  xmlns="http://www.w3.org/2000/svg"
>
  <path
    d="M7.44828 57.7242C7.44403 56.3549 6.33479 55.2456 4.96552 55.2414H2.48276C1.11591 55.2517 0.0103044 56.3573 0 57.7242C0.004243 59.0934 1.11348 60.2027 2.48276 60.2069H4.96552C6.33237 60.1966 7.43797 59.091 7.44828 57.7242Z"
    fill="#E6E7E8"
  />
  <path
    d="M69.5171 55.2414H64.5516C63.1823 55.2456 62.0731 56.3549 62.0688 57.7242C62.0792 59.091 63.1848 60.1966 64.5516 60.2069H69.5171C70.8864 60.2027 71.9956 59.0934 71.9999 57.7242C71.9896 56.3573 70.884 55.2517 69.5171 55.2414Z"
    fill="#E6E7E8"
  />
  <path
    d="M24.8276 60.2069C24.8276 63.6346 22.0484 66.4138 18.6207 66.4138C15.193 66.4138 12.4138 63.6346 12.4138 60.2069C12.4138 56.7792 15.193 54 18.6207 54C22.0484 54 24.8276 56.7792 24.8276 60.2069Z"
    fill="#787680"
  />
  <path
    d="M59.5862 60.2069C59.5862 63.6346 56.807 66.4138 53.3793 66.4138C49.9515 66.4138 47.1724 63.6346 47.1724 60.2069C47.1724 56.7792 49.9515 54 53.3793 54C56.807 54 59.5862 56.7792 59.5862 60.2069Z"
    fill="#787680"
  />
  <path
    d="M19.8622 60.2069C19.8622 60.8924 19.3063 61.4483 18.6208 61.4483C17.9352 61.4483 17.3794 60.8924 17.3794 60.2069C17.3794 59.5213 17.9352 58.9655 18.6208 58.9655C19.3063 58.9655 19.8622 59.5213 19.8622 60.2069Z"
    fill="#57565C"
  />
  <path
    d="M54.6207 60.2069C54.6207 60.8924 54.0649 61.4483 53.3793 61.4483C52.6938 61.4483 52.1379 60.8924 52.1379 60.2069C52.1379 59.5213 52.6938 58.9655 53.3793 58.9655C54.0649 58.9655 54.6207 59.5213 54.6207 60.2069Z"
    fill="#57565C"
  />
  <path
    d="M67.0345 52.7586V55.2414H64.5518C63.1825 55.2457 62.0733 56.3549 62.069 57.7242C62.0793 59.091 63.1849 60.1966 64.5518 60.2069H59.5863C59.5863 56.7792 56.8071 54 53.3794 54C49.9516 54 47.1725 56.7792 47.1725 60.2069H24.8276C24.8276 56.7792 22.0485 54 18.6207 54C15.193 54 12.4139 56.7792 12.4139 60.2069H4.96558C6.33243 60.1966 7.43803 59.091 7.44833 57.7242C7.44409 56.3549 6.33485 55.2457 4.96558 55.2414V52.7586C4.96558 45.9026 10.5233 40.3449 17.3794 40.3449V35.3793C17.3794 29.8944 21.8254 25.4483 27.3104 25.4483H44.6897C50.1729 25.4525 54.6165 29.8962 54.6207 35.3793V40.3449C61.4768 40.3449 67.0345 45.9026 67.0345 52.7586Z"
    fill="#5FC28D"
  />
  <path
    d="M43.4484 30.4138H33.5173V40.3448H49.6553V36.6207C49.6553 33.193 46.8761 30.4138 43.4484 30.4138Z"
    fill="#E6E7E8"
  />
  <path
    d="M67.0345 52.7586V55.2414H64.5517C63.1824 55.2456 62.0732 56.3548 62.0689 57.7241C62.0792 59.091 63.1848 60.1966 64.5517 60.2069H59.5862C59.5862 56.7791 56.807 54 53.3793 54C49.9515 54 47.1724 56.7791 47.1724 60.2069H30.0537C36.9189 57.538 50.5116 49.854 53.1308 30.1531C54.1079 31.7206 54.6243 33.5318 54.6207 35.3793V40.3448C61.4767 40.3448 67.0345 45.9025 67.0345 52.7586Z"
    fill="#40BA78"
  />
  <path
    d="M28.5516 30.4138C25.1239 30.4138 22.3447 33.193 22.3447 36.6207V40.3448H33.5171V30.4138H28.5516Z"
    fill="#D1D3D4"
  />
  <path
    d="M48.4138 8.06894C48.4138 9.44003 47.3021 10.5517 45.931 10.5517C44.5599 10.5517 43.4482 9.44003 43.4482 8.06894C43.4482 6.69785 44.5599 5.58618 45.931 5.58618C47.3021 5.58618 48.4138 6.69785 48.4138 8.06894Z"
    fill="#D1D3D4"
  />
  <path
    d="M71.9999 27.9311C71.9999 29.3022 70.8883 30.4138 69.5172 30.4138C68.1461 30.4138 67.0344 29.3022 67.0344 27.9311C67.0344 26.56 68.1461 25.4483 69.5172 25.4483C70.8883 25.4483 71.9999 26.56 71.9999 27.9311Z"
    fill="#D1D3D4"
  />
  <path
    d="M33.5173 58.9655C32.8317 58.9655 32.2759 58.4097 32.2759 57.7241V42.8276C32.2759 42.142 32.8317 41.5862 33.5173 41.5862C34.2028 41.5862 34.7586 42.142 34.7586 42.8276V57.7241C34.7586 58.4097 34.2028 58.9655 33.5173 58.9655Z"
    fill="#C1F2D7"
  />
  <path
    d="M62.069 52.7586C61.3835 52.7586 60.8276 52.2028 60.8276 51.5172V49.0345C60.8276 48.3489 61.3835 47.7931 62.069 47.7931C62.7546 47.7931 63.3104 48.3489 63.3104 49.0345V51.5172C63.3104 52.2028 62.7546 52.7586 62.069 52.7586Z"
    fill="#E6E7E8"
  />
  <path
    d="M29.7931 13.0345C29.1076 13.0345 28.5518 12.4787 28.5518 11.7931V10.5517C28.5518 9.8662 29.1076 9.31036 29.7931 9.31036C30.4787 9.31036 31.0345 9.8662 31.0345 10.5517V11.7931C31.0345 12.4787 30.4787 13.0345 29.7931 13.0345Z"
    fill="#40BA78"
  />
  <path
    d="M27.3104 15.5172H26.069C25.3835 15.5172 24.8276 14.9614 24.8276 14.2759C24.8276 13.5903 25.3835 13.0345 26.069 13.0345H27.3104C27.9959 13.0345 28.5518 13.5903 28.5518 14.2759C28.5518 14.9614 27.9959 15.5172 27.3104 15.5172Z"
    fill="#40BA78"
  />
  <path
    d="M29.7931 19.2414C29.1076 19.2414 28.5518 18.6856 28.5518 18V16.7587C28.5518 16.0731 29.1076 15.5173 29.7931 15.5173C30.4787 15.5173 31.0345 16.0731 31.0345 16.7587V18C31.0345 18.6856 30.4787 19.2414 29.7931 19.2414Z"
    fill="#40BA78"
  />
  <path
    d="M33.5172 15.5172H32.2758C31.5903 15.5172 31.0344 14.9614 31.0344 14.2759C31.0344 13.5903 31.5903 13.0345 32.2758 13.0345H33.5172C34.2027 13.0345 34.7586 13.5903 34.7586 14.2759C34.7586 14.9614 34.2027 15.5172 33.5172 15.5172Z"
    fill="#40BA78"
  />
  <path
    d="M58.3449 18C57.6593 18 57.1035 17.4442 57.1035 16.7586V15.5173C57.1035 14.8317 57.6593 14.2759 58.3449 14.2759C59.0304 14.2759 59.5863 14.8317 59.5863 15.5173V16.7586C59.5863 17.4442 59.0304 18 58.3449 18Z"
    fill="#40BA78"
  />
  <path
    d="M55.8622 20.4828H54.6208C53.9352 20.4828 53.3794 19.9269 53.3794 19.2414C53.3794 18.5558 53.9352 18 54.6208 18H55.8622C56.5477 18 57.1035 18.5558 57.1035 19.2414C57.1035 19.9269 56.5477 20.4828 55.8622 20.4828Z"
    fill="#40BA78"
  />
  <path
    d="M58.3449 24.2069C57.6593 24.2069 57.1035 23.6511 57.1035 22.9655V21.7242C57.1035 21.0386 57.6593 20.4828 58.3449 20.4828C59.0304 20.4828 59.5863 21.0386 59.5863 21.7242V22.9655C59.5863 23.6511 59.0304 24.2069 58.3449 24.2069Z"
    fill="#40BA78"
  />
  <path
    d="M62.0689 20.4828H60.8276C60.142 20.4828 59.5862 19.9269 59.5862 19.2414C59.5862 18.5558 60.142 18 60.8276 18H62.0689C62.7545 18 63.3103 18.5558 63.3103 19.2414C63.3103 19.9269 62.7545 20.4828 62.0689 20.4828Z"
    fill="#40BA78"
  />
  <path
    d="M7.44817 19.2413C6.76262 19.2413 6.20679 18.6855 6.20679 18V16.7586C6.20679 16.073 6.76262 15.5172 7.44817 15.5172C8.13371 15.5172 8.68954 16.073 8.68954 16.7586V18C8.68954 18.6855 8.13371 19.2413 7.44817 19.2413Z"
    fill="#C1F2D7"
  />
  <path
    d="M4.81524 20.3324C4.48611 20.3324 4.17031 20.2015 3.93755 19.9688L3.05985 19.0911C2.58949 18.6043 2.59615 17.8297 3.07501 17.3508C3.55386 16.872 4.32851 16.8653 4.81524 17.3357L5.69294 18.2134C6.04814 18.5686 6.15421 19.1026 5.96206 19.5663C5.76992 20.03 5.31713 20.3324 4.81524 20.3324Z"
    fill="#C1F2D7"
  />
  <path
    d="M3.72421 22.9655H2.48283C1.79729 22.9655 1.24146 22.4097 1.24146 21.7242C1.24146 21.0386 1.79729 20.4828 2.48283 20.4828H3.72421C4.40976 20.4828 4.96559 21.0386 4.96559 21.7242C4.96559 22.4097 4.40976 22.9655 3.72421 22.9655Z"
    fill="#C1F2D7"
  />
  <path
    d="M3.93758 26.4763C3.43569 26.4763 2.9829 26.1738 2.79136 25.7095C2.59921 25.2458 2.70529 24.7124 3.05988 24.3572L3.93758 23.4795C4.42491 23.0092 5.19896 23.0158 5.67781 23.4947C6.15666 23.9735 6.16333 24.7476 5.69296 25.2349L4.81527 26.1126C4.58251 26.3454 4.26671 26.4763 3.93758 26.4763Z"
    fill="#C1F2D7"
  />
  <path
    d="M7.44817 27.931C6.76262 27.931 6.20679 27.3752 6.20679 26.6897V25.4483C6.20679 24.7627 6.76262 24.2069 7.44817 24.2069C8.13371 24.2069 8.68954 24.7627 8.68954 25.4483V26.6897C8.68954 27.3752 8.13371 27.931 7.44817 27.931Z"
    fill="#C1F2D7"
  />
  <path
    d="M10.959 26.4763C10.6299 26.4763 10.3141 26.3454 10.0813 26.1126L9.20365 25.2349C8.73329 24.7476 8.73995 23.9735 9.21881 23.4947C9.69766 23.0158 10.4717 23.0092 10.959 23.4795L11.8367 24.3572C12.1913 24.7124 12.2974 25.2458 12.1053 25.7095C11.9137 26.1738 11.4609 26.4763 10.959 26.4763Z"
    fill="#C1F2D7"
  />
  <path
    d="M12.4139 22.9655H11.1725C10.487 22.9655 9.93115 22.4097 9.93115 21.7242C9.93115 21.0386 10.487 20.4828 11.1725 20.4828H12.4139C13.0995 20.4828 13.6553 21.0386 13.6553 21.7242C13.6553 22.4097 13.0995 22.9655 12.4139 22.9655Z"
    fill="#C1F2D7"
  />
  <path
    d="M10.0815 20.3324C9.57959 20.3324 9.1268 20.03 8.93465 19.5663C8.7425 19.1026 8.84858 18.5686 9.20378 18.2134L10.0815 17.3357C10.5682 16.8653 11.3429 16.872 11.8217 17.3508C12.3006 17.8297 12.3072 18.6043 11.8369 19.0911L10.9592 19.9688C10.7264 20.2015 10.4106 20.3324 10.0815 20.3324Z"
    fill="#C1F2D7"
  />
</svg>
