<svg
  width="50"
  height="50"
  viewBox="0 0 50 50"
  fill="none"
  xmlns="http://www.w3.org/2000/svg"
>
  <path
    d="M31.25 31.9336H3.90625C1.74893 31.9336 0 33.6825 0 35.8398V36.3281H5.37109C6.18008 36.3281 6.83594 36.984 6.83594 37.793C6.83594 38.602 6.18008 39.2578 5.37109 39.2578H0V42.1875C0 42.9965 0.655859 43.6523 1.46484 43.6523H33.6914C34.5004 43.6523 35.1562 42.9965 35.1562 42.1875V39.2578H29.7852C28.9762 39.2578 28.3203 38.602 28.3203 37.793C28.3203 36.984 28.9762 36.3281 29.7852 36.3281H35.1562V35.8398C35.1562 33.6825 33.4073 31.9336 31.25 31.9336ZM21.9727 39.2578H13.1836C12.3746 39.2578 11.7188 38.602 11.7188 37.793C11.7188 36.984 12.3746 36.3281 13.1836 36.3281H21.9727C22.7816 36.3281 23.4375 36.984 23.4375 37.793C23.4375 38.602 22.7816 39.2578 21.9727 39.2578Z"
    fill="#257CE4"
  />
  <path
    d="M6.55088 23.0659L4.76953 29.0039H30.3867L28.6054 23.0659C27.9185 20.7765 25.8511 19.2383 23.4608 19.2383H11.6954C9.30518 19.2383 7.23779 20.7765 6.55088 23.0659Z"
    fill="#257CE4"
  />
  <path
    d="M44.6289 47.0703H42.1875V23.4375H39.2578V47.0703H36.8164C36.0074 47.0703 35.3516 47.7262 35.3516 48.5352C35.3516 49.3441 36.0074 50 36.8164 50H44.6289C45.4379 50 46.0938 49.3441 46.0938 48.5352C46.0938 47.7262 45.4379 47.0703 44.6289 47.0703Z"
    fill="#257CE4"
  />
  <path
    d="M41.1701 6.83594H39.7024C39.704 7.39756 39.7055 8.04727 39.7055 8.33965C39.7055 8.6834 39.7083 9.31045 39.7111 9.84873C40.2324 9.846 40.834 9.84326 41.1701 9.84326C42.0115 9.84326 42.7224 9.15469 42.7224 8.33965C42.7224 7.52461 42.0115 6.83594 41.1701 6.83594Z"
    fill="#257CE4"
  />
  <path
    d="M46.582 0H34.8633C32.9786 0 31.4453 1.5333 31.4453 3.41797V17.0898C31.4453 18.9745 32.9786 20.5078 34.8633 20.5078H46.582C48.4667 20.5078 50 18.9745 50 17.0898V3.41797C50 1.5333 48.4667 0 46.582 0ZM41.1701 11.7965C40.8327 11.7965 40.223 11.7992 39.6994 11.8021V14.6484C39.6994 15.1877 39.2621 15.625 38.7229 15.625C38.1836 15.625 37.7463 15.1877 37.7463 14.6484V5.85938H37.7464C37.7464 5.60098 37.8486 5.35303 38.0312 5.16992C38.2145 4.98603 38.4634 4.88281 38.7229 4.88281H41.1701C43.103 4.88281 44.6756 6.43359 44.6756 8.33965C44.6756 10.2457 43.103 11.7965 41.1701 11.7965Z"
    fill="#257CE4"
  />
  <path
    d="M6.34766 50C4.72959 50 3.41797 48.6884 3.41797 47.0703V46.582H9.27734V47.0703C9.27734 48.6884 7.96572 50 6.34766 50Z"
    fill="#257CE4"
  />
  <path
    d="M28.8086 50C27.1905 50 25.8789 48.6884 25.8789 47.0703V46.582H31.7383V47.0703C31.7383 48.6884 30.4267 50 28.8086 50Z"
    fill="#257CE4"
  />
</svg>
