<svg width="216" height="32" viewBox="0 0 216 32" fill="none" xmlns="http://www.w3.org/2000/svg">
<path d="M29.2628 12.2387C29.179 11.9918 29.0247 11.7749 28.819 11.6148C28.6134 11.4546 28.3653 11.3581 28.1055 11.3374L20.5041 10.7334L17.2148 3.45202C17.11 3.2175 16.9396 3.01831 16.7242 2.8785C16.5087 2.73868 16.2574 2.6642 16.0005 2.66406C15.7437 2.66392 15.4923 2.73812 15.2767 2.8777C15.0611 3.01728 14.8905 3.21628 14.7854 3.45069L11.4961 10.7334L3.89478 11.3374C3.63939 11.3576 3.39523 11.451 3.19152 11.6063C2.98781 11.7617 2.83317 11.9724 2.74611 12.2134C2.65904 12.4543 2.64323 12.7153 2.70058 12.965C2.75792 13.2146 2.88598 13.4425 3.06945 13.6214L8.68678 19.0974L6.70012 27.7C6.63979 27.9604 6.65913 28.2329 6.75561 28.4822C6.85209 28.7315 7.02127 28.946 7.24119 29.0979C7.4611 29.2499 7.72161 29.3322 7.9889 29.3342C8.25618 29.3363 8.51791 29.2579 8.74012 29.1094L16.0001 24.2694L23.2601 29.1094C23.4872 29.2601 23.7551 29.3378 24.0276 29.3318C24.3002 29.3258 24.5644 29.2365 24.7846 29.0759C25.0049 28.9153 25.1708 28.6911 25.2598 28.4334C25.3489 28.1758 25.3569 27.897 25.2828 27.6347L22.8441 19.1014L28.8921 13.6587C29.2881 13.3014 29.4335 12.744 29.2628 12.2387Z" fill="#FDB600"/>
<path d="M75.2628 12.2387C75.179 11.9918 75.0247 11.7749 74.819 11.6148C74.6134 11.4546 74.3653 11.3581 74.1055 11.3374L66.5041 10.7334L63.2148 3.45202C63.11 3.2175 62.9396 3.01831 62.7242 2.8785C62.5087 2.73868 62.2574 2.6642 62.0005 2.66406C61.7437 2.66392 61.4923 2.73812 61.2767 2.8777C61.0611 3.01728 60.8905 3.21628 60.7854 3.45069L57.4961 10.7334L49.8948 11.3374C49.6394 11.3576 49.3952 11.451 49.1915 11.6063C48.9878 11.7617 48.8332 11.9724 48.7461 12.2134C48.659 12.4543 48.6432 12.7153 48.7006 12.965C48.7579 13.2146 48.886 13.4425 49.0694 13.6214L54.6868 19.0974L52.7001 27.7C52.6398 27.9604 52.6591 28.2329 52.7556 28.4822C52.8521 28.7315 53.0213 28.946 53.2412 29.0979C53.4611 29.2499 53.7216 29.3322 53.9889 29.3342C54.2562 29.3363 54.5179 29.2579 54.7401 29.1094L62.0001 24.2694L69.2601 29.1094C69.4872 29.2601 69.7551 29.3378 70.0276 29.3318C70.3002 29.3258 70.5644 29.2365 70.7846 29.0759C71.0049 28.9153 71.1708 28.6911 71.2598 28.4334C71.3489 28.1758 71.3569 27.897 71.2828 27.6347L68.8441 19.1014L74.8921 13.6587C75.2881 13.3014 75.4335 12.744 75.2628 12.2387Z" fill="#FDB600"/>
<path d="M121.263 12.2387C121.179 11.9918 121.025 11.7749 120.819 11.6148C120.613 11.4546 120.365 11.3581 120.105 11.3374L112.504 10.7334L109.215 3.45202C109.11 3.2175 108.94 3.01831 108.724 2.8785C108.509 2.73868 108.257 2.6642 108.001 2.66406C107.744 2.66392 107.492 2.73812 107.277 2.8777C107.061 3.01728 106.89 3.21628 106.785 3.45069L103.496 10.7334L95.8948 11.3374C95.6394 11.3576 95.3952 11.451 95.1915 11.6063C94.9878 11.7617 94.8332 11.9724 94.7461 12.2134C94.659 12.4543 94.6432 12.7153 94.7006 12.965C94.7579 13.2146 94.886 13.4425 95.0694 13.6214L100.687 19.0974L98.7001 27.7C98.6398 27.9604 98.6591 28.2329 98.7556 28.4822C98.8521 28.7315 99.0213 28.946 99.2412 29.0979C99.4611 29.2499 99.7216 29.3322 99.9889 29.3342C100.256 29.3363 100.518 29.2579 100.74 29.1094L108 24.2694L115.26 29.1094C115.487 29.2601 115.755 29.3378 116.028 29.3318C116.3 29.3258 116.564 29.2365 116.785 29.0759C117.005 28.9153 117.171 28.6911 117.26 28.4334C117.349 28.1758 117.357 27.897 117.283 27.6347L114.844 19.1014L120.892 13.6587C121.288 13.3014 121.433 12.744 121.263 12.2387Z" fill="#FDB600"/>
<path d="M167.263 12.2387C167.179 11.9918 167.025 11.7749 166.819 11.6148C166.613 11.4546 166.365 11.3581 166.105 11.3374L158.504 10.7334L155.215 3.45202C155.11 3.2175 154.94 3.01831 154.724 2.8785C154.509 2.73868 154.257 2.6642 154.001 2.66406C153.744 2.66392 153.492 2.73812 153.277 2.8777C153.061 3.01728 152.89 3.21628 152.785 3.45069L149.496 10.7334L141.895 11.3374C141.639 11.3576 141.395 11.451 141.192 11.6063C140.988 11.7617 140.833 11.9724 140.746 12.2134C140.659 12.4543 140.643 12.7153 140.701 12.965C140.758 13.2146 140.886 13.4425 141.069 13.6214L146.687 19.0974L144.7 27.7C144.64 27.9604 144.659 28.2329 144.756 28.4822C144.852 28.7315 145.021 28.946 145.241 29.0979C145.461 29.2499 145.722 29.3322 145.989 29.3342C146.256 29.3363 146.518 29.2579 146.74 29.1094L154 24.2694L161.26 29.1094C161.487 29.2601 161.755 29.3378 162.028 29.3318C162.3 29.3258 162.564 29.2365 162.785 29.0759C163.005 28.9153 163.171 28.6911 163.26 28.4334C163.349 28.1758 163.357 27.897 163.283 27.6347L160.844 19.1014L166.892 13.6587C167.288 13.3014 167.433 12.744 167.263 12.2387Z" fill="#FDB600"/>
<path d="M213.263 12.2387C213.179 11.9918 213.025 11.7749 212.819 11.6148C212.613 11.4546 212.365 11.3581 212.105 11.3374L204.504 10.7334L201.215 3.45202C201.11 3.2175 200.94 3.01831 200.724 2.8785C200.509 2.73868 200.257 2.6642 200.001 2.66406C199.744 2.66392 199.492 2.73812 199.277 2.8777C199.061 3.01728 198.89 3.21628 198.785 3.45069L195.496 10.7334L187.895 11.3374C187.639 11.3576 187.395 11.451 187.192 11.6063C186.988 11.7617 186.833 11.9724 186.746 12.2134C186.659 12.4543 186.643 12.7153 186.701 12.965C186.758 13.2146 186.886 13.4425 187.069 13.6214L192.687 19.0974L190.7 27.7C190.64 27.9604 190.659 28.2329 190.756 28.4822C190.852 28.7315 191.021 28.946 191.241 29.0979C191.461 29.2499 191.722 29.3322 191.989 29.3342C192.256 29.3363 192.518 29.2579 192.74 29.1094L200 24.2694L207.26 29.1094C207.487 29.2601 207.755 29.3378 208.028 29.3318C208.3 29.3258 208.564 29.2365 208.785 29.0759C209.005 28.9153 209.171 28.6911 209.26 28.4334C209.349 28.1758 209.357 27.897 209.283 27.6347L206.844 19.1014L212.892 13.6587C213.288 13.3014 213.433 12.744 213.263 12.2387Z" fill="#FDB600"/>
</svg>
